{"title":"The.Hit.List.2011.720p.BRRip.x264.AAC.mp4-Zen_Bud","uid":6454707,"size":1472209206,"categoryP":"video","categoryS":"hd___movies","magnet":"?xt=urn:btih:6ebbbf543a8b13bed95dd9d622fa6c21fa369b7c&amp;dn=+The.Hit.List.2011.720p.BRRip.x264.AAC.mp4-Zen_Bud&amp;tr=udp%3A%2F%2Ftracker.openbittorrent.com%3A80&amp;tr=udp%3A%2F%2Fopen.demonii.com%3A1337&amp;tr=udp%3A%2F%2Ftracker.coppersurfer.tk%3A6969&amp;tr=udp%3A%2F%2Fexodus.desync.com%3A6969","seeders":0,"leechers":1,"uploader":"Zen_Bud","files":-1,"time":1307546998,"description":"(((((((( The.Hit.List.2011.720p.BRRip.x264.AAC.mp4-Zen_Bud ))))))))\n\nFormat                           : MPEG-4\nFile size                        : 1.37 GiB\nDuration                         : 1h 30mn\nOverall bit rate                 : 2 177 Kbps\n\n\n\nVideo\n\nFormat                           : AVC\nFormat profile                   : &lt;a class=&quot;__cf_email__&quot; href=&quot;/cdn-cgi/l/email-protection&quot; data-cfemail=&quot;91dcf0f8ffd1dda2bfa0&quot;&gt;[email&amp;#160;protected]&lt;/a&gt;&lt;script cf-hash='f9e31' type=&quot;text/javascript&quot;&gt;\n/* &lt;![CDATA[ */!function(){try{var t=&quot;currentScript&quot;in document?document.currentScript:function(){for(var t=document.getElementsByTagName(&quot;script&quot;),e=t.length;e--;)if(t[e].getAttribute(&quot;cf-hash&quot;))return t[e]}();if(t&amp;&amp;t.previousSibling){var e,r,n,i,c=t.previousSibling,a=c.getAttribute(&quot;data-cfemail&quot;);if(a){for(e=&quot;&quot;,r=parseInt(a.substr(0,2),16),n=2;a.length-n;n+=2)i=parseInt(a.substr(n,2),16)^r,e+=String.fromCharCode(i);e=document.createTextNode(e),c.parentNode.replaceChild(e,c)}}}catch(u){}}();/* ]]&gt; */&lt;/script&gt;\nFormat settings, CABAC           : Yes\nFormat settings, ReFrames        : 4 frames\nDuration                         : 1h 30mn\nBit rate mode                    : Variable\nBit rate                         : 1 980 Kbps\nWidth                            : 1 280 pixels\nHeight                           : 720 pixels\nDisplay aspect ratio             : 16:90\nStream size                      : 1.25 GiB (91%)\nWriting library                  : x264 core 115\n\n\nAudio\n\nFormat                           : AAC\nFormat/Info                      : Advanced Audio Codec\nCodec ID                         : 40\nDuration                         : 1h 30mn\nBit rate                         : 192 Kbps\nChannel(s)                       : 2 channels\nChannel positions                : Front: L R\nSampling rate                    : 48.0 KHz\nStream size                      : 124 MiB (9%)\nLanguage                         : English\n\n\nSubtitel                         : Svenska [.srt ]\n\n\n===========================================================\n\nA disgruntled man creates a hit list with a stranger \nduring a drunken night out and must then race to try \nto save those he marked for extermination as the \nbodies begin to pile up and all fingers point to him. \n\n==========================================================\n","torrent":{"xt":"urn:btih:6ebbbf543a8b13bed95dd9d622fa6c21fa369b7c","amp;dn":"+The.Hit.List.2011.720p.BRRip.x264.AAC.mp4-Zen_Bud","amp;tr":["udp%3A%2F%2Ftracker.openbittorrent.com%3A80","udp%3A%2F%2Fopen.demonii.com%3A1337","udp%3A%2F%2Ftracker.coppersurfer.tk%3A6969","udp%3A%2F%2Fexodus.desync.com%3A6969"],"infoHash":"6ebbbf543a8b13bed95dd9d622fa6c21fa369b7c","infoHashBuffer":{"type":"Buffer","data":[110,187,191,84,58,139,19,190,217,93,217,214,34,250,108,33,250,54,155,124]},"announce":[],"urlList":[]}}